HIERARCHY
ROOT hip
{
  OFFSET 0 0 0
  CHANNELS 6 Xposition Yposition Zposition Zrotation Yrotation Xrotation
  JOINT abdomen
  {
    OFFSET 0 20.6881 -0.73152
    CHANNELS 3 Zrotation Xrotation Yrotation
    JOINT chest
    {
      OFFSET 0 11.7043 -0.48768
      CHANNELS 3 Zrotation Xrotation Yrotation
      JOINT neck
      {
        OFFSET 0 22.1894 -2.19456
        CHANNELS 3 Zrotation Xrotation Yrotation
        JOINT head
        {
          OFFSET -0.24384 7.07133 1.2192
          CHANNELS 3 Zrotation Xrotation Yrotation
          JOINT leftEye
          {
            OFFSET 4.14528 8.04674 8.04672
            CHANNELS 3 Zrotation Xrotation Yrotation
            End Site
            {
              OFFSET 1 0 0
            }
          }
          JOINT rightEye
          {
            OFFSET -3.6576 8.04674 8.04672
            CHANNELS 3 Zrotation Xrotation Yrotation
            End Site
            {
              OFFSET 1 0 0
            }
          }
        }
      }
      JOINT rCollar
      {
        OFFSET -2.68224 19.2634 -4.8768
        CHANNELS 3 Zrotation Xrotation Yrotation
        JOINT rShldr
        {
          OFFSET -8.77824 -1.95073 1.46304
          CHANNELS 3 Zrotation Xrotation Yrotation
          JOINT rForeArm
          {
            OFFSET -28.1742 -1.7115 0.48768
            CHANNELS 3 Zrotation Xrotation Yrotation
            JOINT rHand
            {
              OFFSET -22.5879 0.773209 7.07136
              CHANNELS 3 Zrotation Xrotation Yrotation
              JOINT rThumb1
              {
                OFFSET -1.2192 -0.487915 3.41376
                CHANNELS 3 Zrotation Xrotation Yrotation
                JOINT rThumb2
                {
                  OFFSET -3.37035 -0.52449 3.41376
                  CHANNELS 3 Zrotation Xrotation Yrotation
                  End Site
                  {
                    OFFSET -1.78271 -1.18214 1.43049
                  }
                }
              }
              JOINT rIndex1
              {
                OFFSET -7.75947 0.938293 5.60832
                CHANNELS 3 Zrotation Xrotation Yrotation
                JOINT rIndex2
                {
                  OFFSET -2.54057 -0.884171 1.56538
                  CHANNELS 3 Zrotation Xrotation Yrotation
                  End Site
                  {
                    OFFSET -1.62519 -0.234802 1.16502
                  }
                }
              }
              JOINT rMid1
              {
                OFFSET -8.24714 1.18213 3.41376
                CHANNELS 3 Zrotation Xrotation Yrotation
                JOINT rMid2
                {
                  OFFSET -3.10165 -0.590103 1.0647
                  CHANNELS 3 Zrotation Xrotation Yrotation
                  End Site
                  {
                    OFFSET -2.48547 -0.328903 0.83742
                  }
                }
              }
              JOINT rRing1
              {
                OFFSET -8.82822 0.546677 1.51678
                CHANNELS 3 Zrotation Xrotation Yrotation
                JOINT rRing2
                {
                  OFFSET -2.60934 -0.819778 -0.0198488
                  CHANNELS 3 Zrotation Xrotation Yrotation
                  End Site
                  {
                    OFFSET -2.33842 -0.294052 0.168128
                  }
                }
              }
              JOINT rPinky1
              {
                OFFSET -8.27202 -0.0477905 -0.4584
                CHANNELS 3 Zrotation Xrotation Yrotation
                JOINT rPinky2
                {
                  OFFSET -1.82734 -0.647385 -0.700984
                  CHANNELS 3 Zrotation Xrotation Yrotation
                  End Site
                  {
                    OFFSET -1.69225 -0.51767 -0.607171
                  }
                }
              }
            }
          }
        }
      }
      JOINT lCollar
      {
        OFFSET 2.68224 19.2634 -4.8768
        CHANNELS 3 Zrotation Xrotation Yrotation
        JOINT lShldr
        {
          OFFSET 8.77824 -1.95073 1.46304
          CHANNELS 3 Zrotation Xrotation Yrotation
          JOINT lForeArm
          {
            OFFSET 28.1742 -1.7115 0.48768
            CHANNELS 3 Zrotation Xrotation Yrotation
            JOINT lHand
            {
              OFFSET 22.5879 0.773209 7.07136
              CHANNELS 3 Zrotation Xrotation Yrotation
              JOINT lThumb1
              {
                OFFSET 1.2192 -0.487915 3.41376
                CHANNELS 3 Zrotation Xrotation Yrotation
                JOINT lThumb2
                {
                  OFFSET 3.37035 -0.52449 3.41376
                  CHANNELS 3 Zrotation Xrotation Yrotation
                  End Site
                  {
                    OFFSET 1.78271 -1.18214 1.43049
                  }
                }
              }
              JOINT lIndex1
              {
                OFFSET 7.75947 0.938293 5.60832
                CHANNELS 3 Zrotation Xrotation Yrotation
                JOINT lIndex2
                {
                  OFFSET 2.54057 -0.884171 1.56538
                  CHANNELS 3 Zrotation Xrotation Yrotation
                  End Site
                  {
                    OFFSET 1.62519 -0.234802 1.16502
                  }
                }
              }
              JOINT lMid1
              {
                OFFSET 8.24714 1.18213 3.41376
                CHANNELS 3 Zrotation Xrotation Yrotation
                JOINT lMid2
                {
                  OFFSET 3.10165 -0.590103 1.0647
                  CHANNELS 3 Zrotation Xrotation Yrotation
                  End Site
                  {
                    OFFSET 2.48547 -0.328903 0.83742
                  }
                }
              }
              JOINT lRing1
              {
                OFFSET 8.82822 0.546677 1.51678
                CHANNELS 3 Zrotation Xrotation Yrotation
                JOINT lRing2
                {
                  OFFSET 2.60934 -0.819778 -0.0198488
                  CHANNELS 3 Zrotation Xrotation Yrotation
                  End Site
                  {
                    OFFSET 2.33842 -0.294052 0.168128
                  }
                }
              }
              JOINT lPinky1
              {
                OFFSET 8.27202 -0.0477905 -0.4584
                CHANNELS 3 Zrotation Xrotation Yrotation
                JOINT lPinky2
                {
                  OFFSET 1.82734 -0.647385 -0.700984
                  CHANNELS 3 Zrotation Xrotation Yrotation
                  End Site
                  {
                    OFFSET 1.69225 -0.51767 -0.607171
                  }
                }
              }
            }
          }
        }
      }
    }
  }
  JOINT rButtock
  {
    OFFSET -8.77824 4.35084 1.2192
    CHANNELS 3 Zrotation Xrotation Yrotation
    JOINT rThigh
    {
      OFFSET 0 -1.70687 -2.19456
      CHANNELS 3 Zrotation Xrotation Yrotation
      JOINT rShin
      {
        OFFSET 0 -36.8199 0.73152
        CHANNELS 3 Zrotation Xrotation Yrotation
        JOINT rFoot
        {
          OFFSET 0.73152 -45.1104 -5.12064
          CHANNELS 3 Zrotation Xrotation Yrotation
          End Site
          {
            OFFSET -1.1221 -3.69964 12.103
          }
        }
      }
    }
  }
  JOINT lButtock
  {
    OFFSET 8.77824 4.35084 1.2192
    CHANNELS 3 Zrotation Xrotation Yrotation
    JOINT lThigh
    {
      OFFSET 0 -1.70687 -2.19456
      CHANNELS 3 Zrotation Xrotation Yrotation
      JOINT lShin
      {
        OFFSET 0 -36.8199 0.73152
        CHANNELS 3 Zrotation Xrotation Yrotation
        JOINT lFoot
        {
          OFFSET -0.73152 -45.1104 -5.12064
          CHANNELS 3 Zrotation Xrotation Yrotation
          End Site
          {
            OFFSET 1.1221 -3.69964 12.103
          }
        }
      }
    }
  }
}
MOTION
Frames:	6
Frame Time:	0.00833333
-4.9353 81.54820000000001 18.437 0.586998 -38.862829 5.632984 3.961901 -15.144107 26.273156 0.050101 3.700406 -22.327399 -11.319443 23.695138 -92.777556 16.836361 8.582575 62.682757 0.000435 -0.0 -0.000694 -0.005394 -0.0 0.001578 -152.128437 14.11327 157.557043 109.148701 -24.882607 177.343106 -3.638863 -0.807772 112.430819 -9.764219 -36.645195 -8.794506 116.309543 -50.010875 56.954946 -163.587834 -15.722974 118.767584 5.742288 -9.851081 -2.889461 -8.518004 25.876851 8.166187 -129.362695 47.297244 118.70102 -11.621912 33.694397 9.572035 -145.11944 0.185636 -179.186252 -141.826243 -56.542699 -163.975261 -158.21761 60.369708 -150.796495 2.483286 2.480574 -0.874539 120.448416 60.637612 -124.076183 -121.325165 -36.626544 -131.135932 7.484278 1.484401 -109.834612 9.101674 -41.493445 9.715061 5.764048 5.575032 -1.158479 141.740109 -47.303615 -116.346498 -159.641857 -69.973332 -102.397359 46.219725 53.800846 -36.456372 -173.120482 -66.297461 -137.61158 3.483252 17.299555 -3.585132 0.000935 -0.061077 0.017591 78.272703 78.782469 -91.693972 -4.596315 13.359956 -4.155264 24.492446 -41.303457 24.925682 -179.997655 75.750847 -0.001604 179.551876 69.656003 179.609774 -3.082575 -20.158525 -137.842645 -25.864379 11.618802 -61.31724 -0.000869 -0.000127 0.001117 9.744949 -27.078935 0.0 -12.356917 30.008653 47.207512 -156.834916 -22.796663 0.461115
-5.1277 81.3832 19.3767 0.947055 -37.379127 5.380846 4.951447 -15.401181 -0.0 -2.700042 3.220646 4.233147 -2.706149 30.951313 -160.835785 9.064872 22.302412 126.98795 0.002716 -0.0 -2.2e-05 0.002855 0.0 0.002924 -155.460388 -3.227683 161.777789 116.231388 -10.140322 -163.716463 171.321104 -0.068039 32.526101 -145.764878 34.412735 125.593547 175.881343 -21.258003 88.493527 -150.249743 9.266925 82.412032 2.326333 -3.867558 -1.260304 178.939703 -38.116676 104.784903 -167.374228 -28.008638 145.26923 -170.536904 -26.267224 143.88933 -70.379237 -72.12974 -87.280256 14.728066 0.860874 -4.413824 5.66446 16.872104 5.08629 -146.178185 6.926346 -142.451213 33.842579 -85.665487 55.259476 -28.244001 -7.235143 33.167002 109.403708 84.710246 139.226247 10.784119 -33.117636 8.221061 -113.262764 -50.398863 -54.829781 150.744002 -88.47299 -175.841193 151.351964 -17.158472 -121.133786 157.091987 -6.728283 -119.283295 17.25983 35.487222 -12.860176 17.880846 42.291304 -14.473818 145.11953 0.185172 179.187047 154.171702 -12.523957 177.5051 145.201829 12.15878 141.849986 148.368014 14.090382 142.242789 179.983435 75.749914 0.014617 177.75672 70.148533 174.656328 -3.374546 -25.408704 -86.873581 157.291988 59.467324 120.27264 -179.998426 75.749035 -0.001077 -168.642017 48.660508 -0.0 -11.205082 29.693505 -20.064575 127.083802 23.74487 -40.253471
-5.3233999999999995 81.2223 20.2762 1.132087 -35.852927 5.166959 4.637989 -15.656098 1.440604 -2.563792 3.35787 2.616892 8.923328 23.917076 115.02445 -9.718841 17.942889 -149.542347 -0.001998 0.0 -0.003347 -0.001962 -0.0 0.001881 -152.12832 14.113157 157.556761 109.699632 -14.122154 -179.996899 173.149874 0.69944 34.65085 -145.78368 33.389812 126.169319 71.831542 -48.263303 25.791716 -55.058122 32.204216 19.651174 -153.453637 -21.067291 121.745344 -14.881434 39.31122 5.487871 23.902527 -61.334059 1.398883 17.860176 -42.121891 -0.017125 -70.380146 -72.130317 -87.279878 -149.848396 -27.498016 -179.904417 -152.505333 38.523537 -147.796343 -127.047059 -29.830343 -124.124394 159.220268 -48.028476 -170.415384 50.784968 -42.705841 59.36857 -5.555234 12.898424 142.101038 155.270743 22.288695 -134.257486 -81.277029 -49.995447 -32.239327 20.666051 -18.187155 20.861669 166.819798 -43.97356 -122.064837 -86.727031 -69.014751 -32.164415 -23.904723 -61.333659 -1.400782 175.315569 -38.982922 -143.252926 0.000499 -0.018339 0.006787 -9.233889 12.719338 -1.663664 -42.041907 85.991267 2.823501 -0.345563 -2.644003 1.890608 0.000122 0.000546 -0.000157 -0.717923 -5.353413 -158.096473 -10.741394 -18.850866 -168.716763 -52.646072 38.504916 -33.627868 0.000122 0.000546 -0.000157 5.943206 -26.871121 88.040221 29.457813 17.939207 -133.419861 149.149466 -70.68708 -120.744748
-5.4764 81.096 21.1267 1.337155 -34.370177 4.890918 4.322672 -15.744967 1.348696 -2.552637 3.372193 2.397528 8.018355 17.358061 76.161764 -11.957419 8.588401 -111.204568 -0.001707 -0.0 0.001227 0.003913 0.0 0.003624 -48.792116 -86.43452 -70.45492 108.026305 18.080442 -71.500785 172.874599 -13.140298 33.997613 -144.796353 33.719623 125.640104 -6.580861 6.345068 1.364903 -66.068023 25.009272 62.084541 -4.706654 7.223868 2.855533 -142.679789 13.67813 106.023676 -36.036801 51.72255 29.833406 -5.864766 23.542348 5.218739 -145.100161 -1.521053 -178.65005 -23.421225 -71.735849 -44.782938 -150.033243 28.966508 -145.934634 -76.477267 -52.977777 -75.787829 155.417311 -2.951573 -161.718118 33.73889 -7.58089 16.415436 -102.76958 -36.684744 108.917158 41.494353 39.294773 -21.347842 -93.028359 -51.084276 -40.501001 123.463813 -86.637371 162.006608 64.086198 43.041572 -52.300481 -88.024764 -64.067673 -40.647774 167.375089 -28.008726 -145.268027 161.312587 1.267414 -142.236709 -0.003346 1.771097 -0.555205 -9.091197 12.714297 -1.664885 143.938584 8.265367 140.719288 21.295755 -36.818927 22.941452 179.998183 75.749758 0.001495 174.390264 72.3766 5.314315 -6.41244 30.351966 -111.464738 32.623102 31.665102 74.885163 179.998183 75.749758 0.001495 -173.794657 48.097694 123.690048 36.51361 -19.124741 -6.385866 -155.340238 31.028191 63.898753
-5.5102 81.0325 21.932399999999998 1.73505 -32.993014 4.487971 4.057493 -15.70552 -0.0 -2.669457 3.295008 3.440245 -12.406608 20.160254 -69.18211 14.596281 4.29173 36.6721 0.002933 0.0 0.00515 -0.002709 0.0 -0.00249 -13.74413 42.431404 15.56971 84.953779 9.307508 69.952496 -12.462322 4.016317 107.791596 -10.096041 -52.827739 -12.971775 -171.817614 -9.500438 89.947759 -145.215426 7.272433 74.461895 -153.453796 -21.06767 121.744283 11.16368 1.027201 -9.743757 -82.840311 61.111201 74.532391 -165.541761 -12.320532 143.797617 -70.37951 -72.128902 -87.280785 -150.976799 0.128147 176.280006 -163.033213 73.433213 -150.718979 -30.44424 -43.372567 -30.467095 -0.118435 -0.713966 0.158425 -40.166775 22.299511 -33.205172 7.504475 -20.156828 -104.977593 8.866518 -39.62802 9.229048 5.433514 5.264944 -1.078451 0.269797 1.291394 -3.729187 -159.641464 -69.973431 -102.395191 39.202366 52.177196 -30.318303 -89.035552 -81.392747 -59.76013 -7.092666 -12.337478 1.01795 145.099853 -1.522153 178.65009 147.99678 -43.026628 170.609523 -4.055353 11.638119 -3.676974 138.018647 -13.879293 135.476771 -179.700207 75.750531 -0.231068 172.835797 71.886112 0.0 -10.96769 27.951984 -69.29247 159.962498 2.159366 -39.708016 -0.005169 0.001089 -0.002585 4.173195 -25.290459 0.0 -7.632995 31.081142 51.347792 -106.141086 -4.482507 3.753026
-5.5666 80.994 22.686500000000002 1.947893 -31.839143 4.098025 2.084504 -16.223192 42.89469 1.937273 3.562087 -40.180986 -12.196681 24.843168 -95.537994 15.663304 10.619209 61.770979 -0.002567 -0.0 0.002427 -0.00246 0.0 -1.5e-05 -152.128627 14.113006 157.556273 -76.297804 17.689635 -5.181875 5.449658 -3.881518 -136.412796 -149.455549 26.779645 131.034403 -103.199404 36.331806 60.111876 21.650631 -31.305288 24.478052 -1.162324 1.860637 0.669758 -79.644388 48.077505 61.986067 6.532304 -20.415057 -2.71812 -179.74151 -48.699679 141.461264 -77.742383 72.903836 95.869936 5.052892 29.773095 -0.570206 -1.177886 -2.985081 -1.093821 -8.858635 -24.307373 -10.285456 0.048818 0.292378 -0.065308 113.401311 6.889974 -146.744404 152.421551 -7.115034 67.323124 5.319188 -55.13404 11.20795 68.482467 37.953199 -35.659976 -13.474596 -18.446177 -19.703605 -12.216025 -21.784915 5.118945 66.354659 49.212005 -53.136382 -68.981309 -80.154938 -40.575741 -2.750681 0.805563 -0.273266 75.672925 -72.116884 92.828696 -14.726177 0.848999 4.548989 145.17437 12.067636 141.822518 -16.93549 43.793736 -6.039811 -0.000312 -0.001204 0.000401 -2.887702 -4.4507 -0.281525 8.488871 31.626222 90.76524 84.873379 70.802883 179.031185 -0.002046 0.000528 -0.001023 2.981445 -24.849595 7.065047 -0.855694 38.309097 100.131248 -153.407017 24.542488 57.810707
